<?xml version="1.0" encoding="UTF-8" standalone="no"?>
<!DOCTYPE svg PUBLIC "-//W3C//DTD SVG 1.1//EN" "http://www.w3.org/Graphics/SVG/1.1/DTD/svg11.dtd">
<!-- Created with Vectornator (http://vectornator.io/) -->
<svg height="100%" stroke-miterlimit="10" style="fill-rule:nonzero;clip-rule:evenodd;stroke-linecap:round;stroke-linejoin:round;" version="1.1" viewBox="0 0 900 900" width="100%" xml:space="preserve" xmlns="http://www.w3.org/2000/svg" xmlns:xlink="http://www.w3.org/1999/xlink">
<defs/>
<g id="Untitled">
<g opacity="1">
<clipPath id="ClipPath">
<path d="M0 0L900 0L900 0L900 900L900 900L0 900L0 900L0 0L0 0Z"/>
</clipPath>
<g clip-path="url(#ClipPath)">
<path d="M0 450C0 201.472 201.472 0 450 0C698.528 0 900 201.472 900 450C900 698.528 698.528 900 450 900C201.472 900 0 698.528 0 450Z" fill="#1e5aff" fill-rule="nonzero" opacity="1" stroke="none"/>
<path d="M256.368 216.179L244.09 733.09L376.319 733.09L376.319 596.633C380.956 588.947 389.2 584.966 397.097 580.366C399.245 579.115 409.179 574.203 411.265 573.137C417.281 571.251 419.603 569.442 426.376 567.715C438.755 564.557 443.358 564.557 456.6 565.003C467.867 565.383 476.717 570.51 485.879 576.751C495.948 583.61 501.342 592.574 508.547 602.055C515.65 611.402 520.799 619.882 526.492 630.069C532.518 640.852 537.114 650.248 541.604 661.698C546.108 673.183 548.678 683.294 551.994 695.135C553.452 700.342 554.699 705.173 555.902 710.015C557.106 714.856 557.321 715.189 558.605 720.438C559.614 724.563 560.966 728.669 562.383 733.09L688 682.483C681.883 662.846 675.979 646.436 668.166 627.358C659.816 606.97 652.651 589.682 641.72 570.426C630.946 551.445 622.786 534.328 606.774 518.915C595.882 508.432 585.953 500.104 571.828 493.612C568.353 492.015 560.982 488.733 554.479 487.286C545.787 485.353 538.647 485.161 544.438 481.864C559.039 473.55 558.803 473.098 571.828 466.501C583.336 460.673 591.902 453.659 601.107 444.813C613.971 432.451 622.446 419.82 630.386 404.147C639.317 386.518 643.963 370.263 646.442 350.829C649.403 327.628 646.843 307.87 641.72 284.86C637.418 265.537 630.966 252.705 619.997 237.868C608.662 222.536 595.519 212.301 579.384 201.72C558.662 188.133 538.436 180.768 514.214 174.61C488.64 168.108 465.962 165.824 439.599 167.38C420.714 168.495 408.299 169.536 392.375 170.995C388.658 171.525 372.639 173.096 368.763 173.706C347.716 177.016 334.056 181.38 319.649 186.358C308.333 190.267 298.503 193.871 287.537 199.009C276.179 204.331 266.88 209.453 256.368 216.179ZM389.504 303.763C399.399 299.176 409.973 297.147 419.287 294.519C431.329 292.658 445.25 289.406 458.935 290.281C477.343 291.458 501.939 296.801 515.405 314.549C525.993 328.502 529.664 344.238 526.514 361.287C522.001 385.72 500.568 397.121 479.301 409.823C448.997 427.922 423.052 438.753 385.763 453.85C379.196 456.509 380.443 406.48 389.504 303.763Z" fill="#ffffff" fill-rule="evenodd" opacity="1" stroke="#000000" stroke-linecap="square" stroke-linejoin="miter" stroke-width="10"/>
</g>
</g>
</g>
</svg>
