<?xml version="1.0" encoding="UTF-8" standalone="no"?>
<!DOCTYPE svg PUBLIC "-//W3C//DTD SVG 1.1//EN" "http://www.w3.org/Graphics/SVG/1.1/DTD/svg11.dtd">
<!-- Created with Vectornator (http://vectornator.io/) -->
<svg height="100%" stroke-miterlimit="10" style="fill-rule:nonzero;clip-rule:evenodd;stroke-linecap:round;stroke-linejoin:round;" version="1.1" viewBox="0 0 128 128" width="100%" xml:space="preserve" xmlns="http://www.w3.org/2000/svg" xmlns:xlink="http://www.w3.org/1999/xlink">
<defs/>
<g id="Layer-1">
<path d="M14.0835 64C14.0835 36.4319 36.4319 14.0835 64 14.0835C91.5681 14.0835 113.916 36.4319 113.916 64C113.916 91.5681 91.5681 113.916 64 113.916C36.4319 113.916 14.0835 91.5681 14.0835 64Z" fill="#1e5aff" fill-rule="nonzero" opacity="1" stroke="none"/>
<path d="M40.468 88.6589L50.7959 39.3411L71.4851 39.3411C75.5669 39.3411 78.6619 39.6831 80.7701 40.3671C82.8783 41.0512 84.5323 42.3351 85.7322 44.219C86.932 46.1029 87.532 48.4802 87.532 51.3509C87.532 55.3654 86.22 58.6959 83.5959 61.3424C80.9719 63.9888 76.7332 65.7045 70.8796 66.4894C72.6738 67.8127 74.0307 69.1134 74.9502 70.3918C77.0135 73.2849 78.6731 76.279 79.9291 79.374L83.6969 88.6589L76.3295 88.6589L72.7972 79.4749C71.5188 76.1557 70.061 73.2849 68.4238 70.8628C67.3024 69.1807 66.1586 68.0762 64.9924 67.5491C63.8262 67.0221 61.9311 66.7586 59.3071 66.7586L51.6369 66.7586L47.0617 88.6589L40.468 88.6589ZM52.747 61.4096L61.8638 61.4096C66.0801 61.4096 68.8275 61.3536 70.1059 61.2414C72.5953 60.9947 74.6362 60.434 76.2285 59.5594C77.8209 58.6847 79.0544 57.5073 79.9291 56.0271C80.8037 54.5468 81.2411 52.9545 81.2411 51.25C81.2411 49.8147 80.9159 48.5643 80.2655 47.499C79.6151 46.4337 78.7628 45.7104 77.7088 45.3292C76.6547 44.9479 74.8605 44.7573 72.3262 44.7573L56.2457 44.7573L52.747 61.4096Z" fill="#ffffff" fill-rule="nonzero" opacity="1" stroke="none"/>
</g>
</svg>
