<?xml version="1.0" encoding="utf-8"?>
<svg viewBox="0 0 1000 1000" xmlns="http://www.w3.org/2000/svg">
  <defs>
    <clipPath id="a" transform="translate(0)">
      <path d="M370.546,440.135c-28.437,9.049-48.735,37.394-49.8,71.862-1.6,51.49,6.678,116.225,36.806,140.982,28.039,23.041,73.35,18.567,107.133,18.171,45.78-.536,96.094-2.258,138.282-22.3C664.823,619.46,643.8,522.736,619.7,472.486c-15.951-33.251-41.934-44.675-79.437-49.609C484.756,415.576,411.653,427.056,370.546,440.135Z" style="fill:none"/>
    </clipPath>
    <linearGradient id="b" x1="296.565" y1="368.237" x2="575.921" y2="652.176" gradientUnits="userSpaceOnUse">
      <stop offset="0.231" stop-color="#fff" stop-opacity="0"/>
      <stop offset="1" stop-color="#fff"/>
    </linearGradient>
    <clipPath id="c" transform="translate(0)">
      <ellipse cx="584.832" cy="690.53" rx="31.606" ry="14.654" transform="translate(-60.518 56.193) rotate(-5.231)" style="fill:none"/>
    </clipPath>
  </defs>
  <title>114-retro-tv</title>
  <ellipse cx="523.083" cy="687.214" rx="258.026" ry="54.631" transform="translate(-32.679 26.149) rotate(-2.777)" style="fill:#b3b1b1"/>
  <polygon points="696.429 650.554 744.115 627.88 743.42 625.89 690.407 648.972 696.429 650.554" style="fill:#b3b1b1"/>
  <ellipse cx="747.222" cy="623.669" rx="6.167" ry="7.5" transform="translate(-207.747 811.656) rotate(-50.986)" style="fill:#b3b1b1"/>
  <path d="M629.844,268.563l78.391-120.132a.342.342,0,0,1,.584.357l-71.486,124.2Z" transform="translate(0)" style="fill:#595959"/>
  <path d="M549.505,255.205l-13.058-67.3a.5.5,0,0,1,.977-.239l19.331,65.065Z" transform="translate(0)" style="fill:#595959"/>
  <polygon points="632 271.027 697.099 166.894 697.489 167.218 634.805 272.745 632 271.027" style="fill:#666"/>
  <path d="M538.5,195.813l14.849,58.744,2.2-1.037-18.908-65.075a.5.5,0,0,0-.977.239Z" transform="translate(0)" style="fill:#666"/>
  <path d="M557.288,252.221l21.294,73.98a.5.5,0,0,1-.612.63l-15.058-4.016a.5.5,0,0,1-.364-.39l-14.007-66.957Z" transform="translate(0)" style="fill:#d94a44"/>
  <path d="M555.962,252.713l-2.482.922L572.617,325.3l3.73.986a.5.5,0,0,0,.612-.63Z" transform="translate(0)" style="fill:#eaeaea;opacity:0.14"/>
  <path d="M638.105,272.755l-34.548,60.87a.343.343,0,0,1-.451.137l-12.35-6.175a.343.343,0,0,1-.134-.493L629.3,267.921Z" transform="translate(0)" style="fill:#d94a44"/>
  <polygon points="633.608 270.286 598.284 327.113 602.563 330.031 635.922 271.557 633.608 270.286" style="fill:#eaeaea;opacity:0.14"/>
  <path d="M456.568,347.621s56.9-57.272,128.488-32.373c39.476,13.73,54.376,69.162,54.376,69.162Z" transform="translate(0)" style="fill:#d34444"/>
  <path d="M443.341,355.142s62.515-54.2,135.491-26.537c48.241,18.284,70.027,71.064,70.027,71.064Z" transform="translate(0)" style="fill:#ce3a3a"/>
  <path d="M534.85,741.521c-66.133,3.157-203.065,13.238-237.448-60.955-17.167-37.043-12.206-84.139-11.916-124.022.254-34.909-5.195-75.245,3.8-109.369,20.149-76.4,131.834-108.133,200.6-110.588,63.786-2.277,110.723,16.232,154.994,45.444,42.42,27.99,49.564,96.744,49.809,141.2.287,52,6.313,106.738-11.949,157.049C663.988,731.946,580.266,739.376,534.85,741.521Z" transform="translate(0)" style="fill:#d94a44"/>
  <path d="M402.727,731.649C361.875,728.99,335,718.22,317.933,707.476c51.559,44.536,160.237,36.75,216.917,34.045,28.821-1.361,73.062-4.856,106.343-20.428C588.458,734.5,486.578,737.107,402.727,731.649Z" transform="translate(0)" style="fill:#ce3a3a"/>
  <path d="M453.863,725.793c-37.649,0-80.754-1.5-104.417-8.656-29.6-8.948-39.547-17.325-49.1-37.935-13.928-30.054-12.967-66.468-12.038-101.682.192-7.271.373-14.138.423-20.952.071-9.813-.3-19.8-.684-30.379-.976-26.572-3.123-54.378,4.381-78.186C321.407,356.065,568.6,358.5,631.9,396.637c18.567,11.188,42.83,21.518,50.746,50.92,5.679,21.1,8.641,46.562,8.8,75.692.055,9.909.322,20.093.58,29.941,1.106,42.184,2.249,85.8-12.335,125.982-7.344,20.234-24.165,33.861-51.424,41.66C604.457,727.644,479.281,725.793,453.863,725.793Z" transform="translate(0)" style="fill:#595959"/>
  <path d="M681.513,673.852c.3-.906.591-1.812.872-2.721.16-.517.312-1.036.467-1.555.251-.836.5-1.673.738-2.512.154-.542.3-1.085.452-1.628q.339-1.234.664-2.474.213-.817.417-1.636.315-1.254.614-2.512.189-.8.372-1.592c.2-.874.393-1.75.582-2.627.106-.494.214-.987.317-1.482q.3-1.434.573-2.873c.08-.414.164-.828.242-1.243q.329-1.752.628-3.509c.036-.206.074-.412.109-.618q.722-4.272,1.288-8.574c.019-.14.035-.282.054-.422q.249-1.9.472-3.815c.032-.275.061-.551.092-.826q.2-1.722.371-3.449.047-.468.091-.936.165-1.689.311-3.381c.027-.308.053-.617.079-.925q.144-1.733.269-3.466.03-.4.058-.8.13-1.854.239-3.711c.011-.18-.091-.361-.081-.542.082-1.414.108-2.828.108-4.244h0c0-5.924.3-11.5.567-16.781.128-13.31-.164-26.627-.51-39.8-.258-9.848-.5-20.032-.551-29.941-.157-28.517-2.991-53.51-8.439-74.341.385,5.215,1.345,10.8,1.77,16.411,1.871,24.726,2.983,54.533-1.133,103.038-2.351,27.719-9.734,78.988-36.067,99.547-19.108,14.917-38.955,9.738-38.955,9.738s-47.111,14.756-56.266,18.936c-10.065,4.6-26.794,4.207-44.689,2.651,0,0-19.691-.758-20.908,2.218s-6.222-3.246-6.222-4.6c-.811,5.546-13.255,7.034-16.771,2.029-4.87-5-8.657,2.931-12.309,3.2s-3.769-13.542-10.766-6.906c-3.192,3.027-12.973-6.161-22.912-.893-13.525,7.168-54.747,2.435-66.32-1.488-16.04-5.438-47.609-10.821-54.462-68.169-5.162-43.2-4.869-62.758-8.368-81.31.106,4.477.164,8.886.132,13.256-.05,6.814-.231,13.681-.423,20.952-.929,35.214-1.89,71.628,12.038,101.682,9.552,20.61,19.5,28.987,49.1,37.935a149.271,149.271,0,0,0,21.824,4.483q2.4.277,4.905.645c.476.058.959.114,1.44.17.414.048.829.1,1.247.144.5.056,1,.112,1.5.166.45.049.905.1,1.358.143q1.222.127,2.46.248l1.263.122q.787.073,1.58.145l1.312.115q1.276.111,2.568.215l1.372.11,1.62.122,1.335.1q1.17.082,2.351.162l1.726.113c.534.034,1.071.066,1.608.1q.716.044,1.434.085c.523.03,1.045.061,1.57.09q1.29.071,2.589.137c.509.026,1.02.051,1.53.075s1.043.05,1.566.075,1.024.047,1.537.069q1.084.048,2.173.092.921.037,1.845.072t1.823.068l1.437.05q1.046.036,2.091.068l1.606.049q1.147.034,2.3.065l1.3.034,2.133.051,1.037.024,2.98.06,1.1.019q1.14.021,2.277.038l.977.015q1.528.023,3.054.04l.874.009,2.459.024.9.008q1.565.014,3.122.021l.541,0,2.688.011.872,0q1.572,0,3.136,0c25.418,0,150.594,1.851,174.4-4.961.772-.221,1.533-.448,2.288-.678.244-.074.486-.15.728-.226q.769-.239,1.527-.485.416-.135.827-.271.723-.24,1.434-.488c.261-.09.524-.179.782-.27q1-.354,1.98-.72c.314-.117.622-.238.932-.358q.543-.208,1.081-.419c.369-.147.734-.3,1.1-.444q.418-.173.834-.346c.4-.166.791-.333,1.18-.5.191-.083.378-.168.567-.251q2.231-.986,4.335-2.045l.258-.13q.721-.366,1.43-.743l.156-.084q3.063-1.636,5.845-3.441a85.508,85.508,0,0,0,17.057-16.123v0a56.637,56.637,0,0,0,3.964-6.516c.022-.042.042-.085.064-.127q.406-.786.791-1.587c.056-.117.107-.236.162-.352.219-.465.435-.931.643-1.4.107-.246.208-.5.313-.746.148-.35.3-.7.441-1.053q.366-.915.705-1.849.726-2,1.4-4.007C681.233,674.729,681.37,674.29,681.513,673.852Z" transform="translate(0)" style="fill:#5e5e5e"/>
  <path d="M431.407,674.46c-25.875,0-55.111-2.29-75.772-19.267-14.181-11.654-24.625-32.4-31.039-61.676-5.122-23.376-7.451-52.159-6.556-81.046a85.594,85.594,0,0,1,15.027-46.637c9.228-13.191,21.774-22.6,36.282-27.22,28.468-9.058,80.252-19.636,132.5-19.636a294.806,294.806,0,0,1,38.149,2.3c20.862,2.744,36.305,7.338,48.6,14.458,14.031,8.123,24.663,20.017,32.5,36.36,19.226,40.08,32.27,98.491,18.069,138.638-6.656,18.819-18.709,32.484-35.823,40.615-41.614,19.771-89.584,21.93-139.185,22.511-4.129.048-8.374.157-12.868.271-6.443.164-13.106.334-19.89.334Z" transform="translate(0)" style="fill:#727272"/>
  <path d="M431.948,677.1c-27.024,0-57.65-2.433-79.893-20.711-15.336-12.6-26.526-34.557-33.26-65.286-5.233-23.883-7.614-53.223-6.7-82.629a92.047,92.047,0,0,1,16.2-50.153c10.051-14.369,23.757-24.632,39.634-29.684,28.911-9.2,81.476-19.94,134.471-19.94a301.444,301.444,0,0,1,39,2.35c21.738,2.86,37.946,7.714,51.009,15.277,15.2,8.8,26.681,21.612,35.1,39.171,19.807,41.29,33.158,101.709,18.336,143.611-7.253,20.506-20.428,35.415-39.158,44.314-42.8,20.335-91.543,22.549-141.895,23.139-4.051.047-8.237.153-12.668.266l-.111-.029c-6.479.165-13.178.3-20.055.3Z" transform="translate(0)" style="fill:#424242;opacity:0.71"/>
  <path d="M432.408,674.46c-26.1,0-55.6-2.31-76.439-19.437-14.307-11.757-24.843-32.69-31.313-62.219-5.168-23.582-7.517-52.619-6.615-81.761A86.35,86.35,0,0,1,333.2,464c9.309-13.308,21.966-22.8,36.6-27.46,28.719-9.138,80.959-19.809,133.671-19.809a297.506,297.506,0,0,1,38.486,2.315c21.045,2.768,36.625,7.4,49.031,14.585,14.155,8.2,24.88,20.194,32.789,36.681,19.4,40.433,32.555,99.36,18.229,139.86-6.716,18.985-18.875,32.771-36.14,40.973-41.98,19.946-90.372,22.124-140.411,22.71-4.166.048-8.448.158-12.982.273-6.5.165-13.221.337-20.065.337Z" transform="translate(0)" style="fill:#6b5245"/>
  <g style="clip-path:url(#a)">
    <rect x="315.535" y="405.023" width="49.865" height="288.308" style="fill:#711c43"/>
    <rect x="364.543" y="405.023" width="49.865" height="288.308" style="fill:#b71046"/>
    <rect x="413.552" y="405.023" width="49.865" height="288.308" style="fill:#e90101"/>
    <rect x="462.56" y="405.023" width="49.865" height="288.308" style="fill:#f5640b"/>
    <rect x="511.568" y="405.023" width="49.865" height="288.308" style="fill:#fe9402"/>
    <rect x="560.577" y="405.023" width="49.865" height="288.308" style="fill:#cdd555"/>
    <rect x="609.585" y="405.023" width="49.865" height="288.308" style="fill:#8a90bc"/>
  </g>
  <ellipse cx="538.128" cy="188.576" rx="14.066" ry="13.525" style="fill:#595959"/>
  <path d="M551.319,183.914a14.043,14.043,0,0,0-13.191-8.864,14.35,14.35,0,0,0-8.548,2.8A10.985,10.985,0,0,0,527.693,184a11.824,11.824,0,0,0,23.63,0C551.323,183.969,551.319,183.942,551.319,183.914Z" transform="translate(0)" style="fill:#666"/>
  <ellipse cx="703.475" cy="157.077" rx="12.443" ry="12.877" style="fill:#595959"/>
  <path d="M703.475,144.2a12.409,12.409,0,0,0-11.223,7.345,12.617,12.617,0,0,0,12.39,11.8A12.41,12.41,0,0,0,715.866,156,12.617,12.617,0,0,0,703.475,144.2Z" transform="translate(0)" style="fill:#666"/>
  <circle cx="499.965" cy="698.389" r="13.977" style="fill:#919191"/>
  <circle cx="499.965" cy="698.569" r="13.797" style="fill:#424242"/>
  <path d="M500.044,712.1a13.85,13.85,0,0,1-10.353-23.055A13.886,13.886,0,1,0,512.135,705,13.848,13.848,0,0,1,500.044,712.1Z" transform="translate(0)" style="fill:#919191"/>
  <circle cx="499.875" cy="698.479" r="12.67" style="fill:#8b8b8b"/>
  <path d="M512.457,697.01a12.67,12.67,0,0,1-25.188,2.758,12.67,12.67,0,1,0,25.188-2.758Z" transform="translate(0)" style="fill:#b2b2b2"/>
  <circle cx="499.875" cy="698.479" r="10.641" style="fill:#666"/>
  <circle cx="499.875" cy="698.479" r="9.694" style="fill:#b2b2b2"/>
  <circle cx="499.875" cy="698.479" r="9.559" style="fill:#8b8b8b"/>
  <path d="M441.633,666.822c-22.545,0-47.923-1.887-65.211-16.093-25.81-21.211-33.458-78.752-32.01-125.544.9-28.991,17.9-53.68,42.3-61.445,27.715-8.818,75.46-17.713,119.651-17.713a264.14,264.14,0,0,1,34.149,2.051c31.154,4.1,54.838,12.948,69.163,42.809a235.355,235.355,0,0,1,18.858,59.548c4.174,24.4,3.3,46.023-2.54,62.52-5.477,15.485-15.35,26.709-29.344,33.357-36.968,17.563-80.22,19.488-125,20.013-3.842.045-7.767.116-11.921.222-5.876.149-11.953.275-18.1.275Z" transform="translate(0)" style="opacity:0.76;fill:url(#b)"/>
  <path d="M332.646,522.818c1.067-34.468,21.365-62.814,49.8-71.862,41.107-13.08,114.209-24.56,169.713-17.258,21.932,2.885,39.921,7.992,54.27,18.383-15.845-17.96-37.684-25.456-66.172-29.2-55.5-7.3-128.607,4.179-169.714,17.258-28.437,9.049-48.735,37.395-49.8,71.862-1.6,51.49,6.678,116.225,36.806,140.982q2.107,1.732,4.342,3.257C337.928,627.57,331.194,569.705,332.646,522.818Z" transform="translate(0)" style="fill:#0a0a0a;opacity:0.3"/>
  <path d="M370.546,440.135c-28.437,9.049-48.735,37.394-49.8,71.862-1.6,51.49,6.678,116.225,36.806,140.982,28.039,23.041,73.35,18.567,107.133,18.171,45.78-.536,96.094-2.258,138.282-22.3C664.823,619.46,643.8,522.736,619.7,472.486c-15.951-33.251-41.934-44.675-79.437-49.609C484.756,415.576,411.653,427.056,370.546,440.135Z" transform="translate(0)" style="fill:none"/>
  <ellipse cx="569.1" cy="507.763" rx="18.395" ry="29.215" transform="translate(-85.61 116.543) rotate(-10.88)" style="fill:#fff;opacity:0.68"/>
  <path d="M579.777,707.211c-16.357,0-28.292-5.577-29.023-13.561-.841-9.184,13.469-17.748,32.578-19.5,2.2-.2,4.4-.3,6.554-.3,16.357,0,28.292,5.577,29.023,13.561.841,9.184-13.469,17.748-32.578,19.5C584.135,707.109,581.931,707.211,579.777,707.211Z" transform="translate(0)" style="fill:#424242;opacity:0.71"/>
  <path d="M587.155,706.364c-2.214.2-4.436.306-6.606.306-16.487,0-28.517-5.621-29.254-13.669a10.039,10.039,0,0,1,2.261-6.982,10.343,10.343,0,0,0-2.8,7.631c.731,7.984,12.666,13.561,29.023,13.561,2.154,0,4.358-.1,6.554-.3,9.754-.893,18.251-3.563,24.128-7.184C604.591,703.066,596.438,705.514,587.155,706.364Z" transform="translate(0)" style="fill:#c4c4c4;opacity:0.39"/>
  <path d="M618.909,687.41c-.731-7.984-12.666-13.561-29.023-13.561-2.154,0-4.359.1-6.554.3-12.908,1.181-23.618,5.474-28.956,10.965,5.5-5.231,15.933-9.282,28.415-10.424,2.195-.2,4.4-.3,6.554-.3,16.357,0,28.292,5.577,29.023,13.561.273,2.98-1.058,5.894-3.622,8.532C617.667,693.705,619.2,690.6,618.909,687.41Z" transform="translate(0)" style="fill:#c4c4c4;opacity:0.39"/>
  <ellipse cx="584.948" cy="690.519" rx="32.732" ry="15.364" transform="translate(-60.517 56.204) rotate(-5.231)" style="fill:#595959"/>
  <g style="clip-path:url(#c)">
    <rect x="545.971" y="690.71" width="70.917" height="1.224" transform="translate(-63.86 59.193) rotate(-5.525)" style="fill:#424242"/>
    <rect x="545.744" y="688.36" width="70.917" height="1.224" transform="translate(-63.635 59.16) rotate(-5.525)" style="fill:#424242"/>
    <rect x="545.517" y="686.01" width="70.917" height="1.224" transform="matrix(0.995, -0.096, 0.096, 0.995, -63.41, 59.127)" style="fill:#424242"/>
    <rect x="545.289" y="683.66" width="70.917" height="1.224" transform="translate(-63.185 59.094) rotate(-5.525)" style="fill:#424242"/>
    <rect x="545.062" y="681.31" width="70.917" height="1.224" transform="translate(-62.959 59.061) rotate(-5.525)" style="fill:#424242"/>
    <rect x="544.835" y="678.96" width="70.917" height="1.224" transform="translate(-62.734 59.029) rotate(-5.525)" style="fill:#424242"/>
    <rect x="544.607" y="676.61" width="70.917" height="1.224" transform="matrix(0.995, -0.096, 0.096, 0.995, -62.509, 58.996)" style="fill:#424242"/>
    <rect x="544.38" y="674.26" width="70.917" height="1.224" transform="translate(-62.284 58.963) rotate(-5.525)" style="fill:#424242"/>
    <rect x="546.877" y="707.219" width="70.917" height="1.224" transform="translate(-65.446 59.357) rotate(-5.525)" style="fill:#424242"/>
    <rect x="546.65" y="704.869" width="70.917" height="1.224" transform="translate(-65.22 59.324) rotate(-5.525)" style="fill:#424242"/>
    <rect x="546.422" y="702.519" width="70.917" height="1.224" transform="translate(-64.995 59.291) rotate(-5.525)" style="fill:#424242"/>
    <rect x="546.195" y="700.169" width="70.917" height="1.224" transform="translate(-64.77 59.258) rotate(-5.525)" style="fill:#424242"/>
    <rect x="545.968" y="697.819" width="70.917" height="1.224" transform="translate(-64.545 59.225) rotate(-5.525)" style="fill:#424242"/>
    <rect x="545.74" y="695.469" width="70.917" height="1.224" transform="translate(-64.319 59.193) rotate(-5.525)" style="fill:#424242"/>
    <rect x="545.513" y="693.119" width="70.917" height="1.224" transform="translate(-64.094 59.16) rotate(-5.525)" style="fill:#424242"/>
    <rect x="545.286" y="690.769" width="70.917" height="1.224" transform="translate(-63.869 59.127) rotate(-5.525)" style="fill:#424242"/>
  </g>
  <rect x="498.786" y="688.192" width="1.984" height="9.333" style="fill:#666"/>
  <rect x="498.786" y="699.554" width="1.984" height="9.378" style="fill:#666"/>
  <circle cx="472.612" cy="695.037" r="9.363" style="fill:#919191"/>
  <circle cx="472.567" cy="695.082" r="9.182" style="fill:#424242"/>
  <circle cx="472.477" cy="695.172" r="8.551" style="fill:#8b8b8b"/>
  <path d="M477.516,695.172a4.989,4.989,0,0,0-3.119-4.624l-1.15-3.889-.1-.02a3.963,3.963,0,0,0-1.515.009l-.034.056-.95,3.846a4.987,4.987,0,0,0,.007,9.247l.943,3.815.034.056a5.706,5.706,0,0,0,1.535.056l.383-.068.833-3.857A4.989,4.989,0,0,0,477.516,695.172Z" transform="translate(0)" style="fill:#666;opacity:0.52"/>
  <path d="M472.549,703.209a4.159,4.159,0,0,1-.5-.028l-.935-3.783-.256-.1a4.445,4.445,0,0,1-.007-8.244l.256-.1.942-3.812a3.827,3.827,0,0,1,.411-.024,3.066,3.066,0,0,1,.36.022l1.128,3.819.241.1a4.445,4.445,0,0,1-.008,8.247l-.266.108-.817,3.781C472.893,703.2,472.715,703.209,472.549,703.209Z" transform="translate(0)" style="fill:#8b8b8b"/>
  <circle cx="472.477" cy="695.172" r="4.133" style="fill:#b2b2b2"/>
  <circle cx="449.349" cy="695.037" r="9.363" style="fill:#919191"/>
  <circle cx="449.303" cy="695.082" r="9.182" style="fill:#424242"/>
  <circle cx="449.213" cy="695.172" r="8.551" style="fill:#8b8b8b"/>
  <path d="M454.252,695.172a4.989,4.989,0,0,0-3.119-4.624l-1.149-3.889-.1-.02a3.963,3.963,0,0,0-1.515.009l-.034.056-.95,3.846a4.987,4.987,0,0,0,.007,9.247l.943,3.815.034.056a5.707,5.707,0,0,0,1.535.056l.383-.068.834-3.857A4.988,4.988,0,0,0,454.252,695.172Z" transform="translate(0)" style="fill:#666;opacity:0.52"/>
  <path d="M449.286,703.209a4.163,4.163,0,0,1-.5-.028l-.935-3.783-.256-.1a4.446,4.446,0,0,1-.007-8.244l.256-.1.942-3.812a3.842,3.842,0,0,1,.411-.024,3.066,3.066,0,0,1,.36.022l1.128,3.819.242.1a4.445,4.445,0,0,1-.009,8.247l-.266.108-.817,3.781C449.629,703.2,449.451,703.209,449.286,703.209Z" transform="translate(0)" style="fill:#8b8b8b"/>
  <circle cx="449.213" cy="695.172" r="4.133" style="fill:#b2b2b2"/>
  <circle cx="426.626" cy="695.037" r="9.363" style="fill:#919191"/>
  <circle cx="426.581" cy="695.082" r="9.182" style="fill:#424242"/>
  <circle cx="426.49" cy="695.172" r="8.551" style="fill:#8b8b8b"/>
  <path d="M430.758,697.825a4.989,4.989,0,0,0-.181-5.575l1.1-3.9-.071-.068a3.953,3.953,0,0,0-1.287-.8l-.059.03-2.851,2.75a4.987,4.987,0,0,0-4.913,7.834l-1.232,3.731v.066a5.7,5.7,0,0,0,1.27.864l.36.146,2.758-2.822A4.988,4.988,0,0,0,430.758,697.825Z" transform="translate(0)" style="fill:#666;opacity:0.52"/>
  <path d="M422.276,701.987a4.1,4.1,0,0,1-.405-.288l1.221-3.7-.162-.223a4.445,4.445,0,0,1,4.381-6.984l.272.048,2.825-2.726a3.616,3.616,0,0,1,.361.2,2.868,2.868,0,0,1,.293.21l-1.077,3.834.153.211a4.445,4.445,0,0,1-4.395,6.979l-.282-.051-2.705,2.767C422.572,702.163,422.416,702.075,422.276,701.987Z" transform="translate(0)" style="fill:#8b8b8b"/>
  <circle cx="426.49" cy="695.172" r="4.133" style="fill:#b2b2b2"/>
  <path d="M682.644,447.557c-7.916-29.4-32.179-39.732-50.746-50.92-51.921-31.286-227.584-38.545-305.038,10.6-16.968,10.768-29.223,24.242-34.431,40.764-2.5,7.95-6.414,37-5.376,60.856,1.037-22.564,20-64.445,29.567-73.658,21.008-20.23,71.7-39.89,148.872-44.869,48.241-3.112,99.075-2.269,137.46,7.262s66.007,27.233,77.419,50.316c2.86,5.785,3.634,11.037,5.751,14.893Q684.6,454.847,682.644,447.557Z" transform="translate(0)" style="fill:#5e5e5e"/>
  <ellipse cx="539.58" cy="180.866" rx="5.058" ry="3.235" transform="translate(-4.214 13.096) rotate(-1.385)" style="fill:#a0a0a0;opacity:0.81"/>
  <ellipse cx="705.01" cy="148.869" rx="2.853" ry="5.058" transform="translate(455.261 824.758) rotate(-81.643)" style="fill:#a0a0a0;opacity:0.81"/>
  <path d="M300.177,421.749c12.941-17.93,46.094-45.39,97.752-61.762,71.194-22.564,122.116-23.265,170.956-14.236-23.671-6.824-49.534-10.215-79-9.164C429.318,338.749,335.458,363.635,300.177,421.749Z" transform="translate(0)" style="fill:#d34444"/>
</svg>